# xmcd
#
# Track frame offsets:
# 150
# 18125
# 32182
# 50303
# 69602
# 83662
# 101512
# 115600
# 128549
# 146406
# 161633
# 176059
# 189739
# 203820
# 224418
# 241198
# 259518
# 278538
#
# Disc length: 3950 seconds
#
#
# Revision: 1
# Processed by: cddbd v1.5.1PL2 Copyright (c) Steve Scherf et al.
# Submitted via: FreeRIP 2.941 
#
DISCID=f00f6c12
DTITLE=Various Artist - Get Rich Or Die Tryin' The Soundtrack
DYEAR=2005
DGENRE=Hip-Hop
TTITLE0=50 Cent - Hustlers Ambition
TTITLE1=50 Cent - What If
TTITLE2=Spider Loc ft.50 Cent,Lloyd Banks - Things Change
TTITLE3=Lloyd Banks ft.50 Cent,Young Buck - You Already Know
TTITLE4=M.O.P. ft.50 Cent - When Death Becomes You
TTITLE5=Mobb Deep ft.50 Cent,Nate Dogg - Have A Party
TTITLE6=50 Cent ft.Olivia - We Both Think Alike
TTITLE7=Young Buck - Don't Need No Help
TTITLE8=Lloyd Banks - Get Low
TTITLE9=Tony Yayo - Fake Love
TTITLE10=50 Cent - Window Shopper
TTITLE11=Lloyd Banks - Born Alone, Die Alone
TTITLE12=Mobb Deep ft.50 Cent - You A Shooter
TTITLE13=50 Cent ft.Lloyd Banks,Prodigy,Spider Loc,Ma$e - I Don't Know Officer
TTITLE14=50 Cent - Talk About Me
TTITLE15=50 Cent - When It Rains It Pours
TTITLE16=50 Cent - Best Friend
TTITLE17=50 Cent ft.Young Buck - I'll Whip Ya Head Boy
EXTD=
EXTT0=
EXTT1=
EXTT2=
EXTT3=
EXTT4=
EXTT5=
EXTT6=
EXTT7=
EXTT8=
EXTT9=
EXTT10=
EXTT11=
EXTT12=
EXTT13=
EXTT14=
EXTT15=
EXTT16=
EXTT17=
PLAYORDER=
